# AST/ASF file generated using VICON BodyLanguage
# -----------------------------------------------
:version 1.10
:name VICON
:units
  mass 1.0
  length 0.45
  angle deg
:documentation
   .ast/.asf automatically generated from VICON data using
   VICON BodyBuilder and BodyLanguage model FoxedUp or BRILLIANT.MOD
:root
   order TX TY TZ RX RY RZ
   axis XYZ
   position 0 0 0  
   orientation 0 0 0 
:bonedata
  begin
     id 1 
     name lhipjoint
     direction 0.662698 -0.695252 0.27831 
     length 2.53073 
     axis 0 0 0  XYZ
  end
  begin
     id 2 
     name lfemur
     direction 0.34202 -0.939693 0  
     length 7.16147  
     axis 0 0 20  XYZ
    dof rx ry rz
    limits (-160.0 20.0)
           (-70.0 70.0)
           (-60.0 70.0)
  end
  begin
     id 3 
     name ltibia
     direction 0.34202 -0.939693 0   
     length 7.63967   
     axis 0 0 20   XYZ
    dof rx
    limits (-10.0 170.0)
  end
  begin
     id 4 
     name lfoot
     direction 0.0938457 -0.257721 0.961651   
     length 1.89793   
     axis -90 7.62852e-016 20   XYZ
    dof rx rz
    limits (-45.0 90.0)
           (-70.0 20.0)
  end
  begin
     id 5 
     name ltoes
     direction -0.00116841 -0.0030592 0.999995   
     length 0.955649   
     axis -90 7.62852e-016 20   XYZ
    dof rx
    limits (-90.0 20.0)
  end
  begin
     id 6 
     name rhipjoint
     direction -0.649445 -0.705948 0.282592   
     length 2.49238  
     axis 0 0 0  XYZ 
  end
  begin
     id 7 
     name rfemur
     direction -0.34202 -0.939693 0   
     length 6.90728   
     axis 0 0 -20   XYZ
    dof rx ry rz
    limits (-160.0 20.0)
           (-70.0 70.0)
           (-70.0 60.0)
  end
  begin
     id 8 
     name rtibia
     direction -0.34202 -0.939693 0   
     length 7.72868   
     axis 0 0 -20   XYZ
    dof rx
    limits (-10.0 170.0)
 end
 begin
     id 9 
     name rfoot
     direction -0.0920068 -0.252865 0.963117   
     length 1.97476  
     axis -90 -7.62852e-016 -20   XYZ
    dof rx rz
    limits (-45.0 90.0)
           (-20.0 70.0)
  end
  begin
     id 10 
     name rtoes
     direction 0.000391322 0.00230649 0.999997   
     length 0.992641   
     axis -90 -7.62852e-016 -20   XYZ
    dof rx
    limits (-90.0 20.0)
  end
  begin
     id 11 
     name lowerback
     direction -0.00875327 0.998321 -0.0572635   
     length 2.20024   
     axis 0 0 0   XYZ
    dof rx ry rz
    limits (-20.0 45.0)
           (-30.0 30.0)
           (-30.0 30.0)
  end
  begin
     id 12 
     name upperback
     direction 0.00753931 0.999972 -0.000360425   
     length 2.20538   
     axis 0 0 0   XYZ
    dof rx ry rz
    limits (-20.0 45.0)
           (-30.0 30.0)
           (-30.0 30.0)
  end
  begin
     id 13 
     name thorax
     direction 0.0117767 0.999601 0.0256663   
     length 2.21508   
     axis 0 0 0   XYZ
    dof rx ry rz
    limits (-20.0 45.0)
           (-30.0 30.0)
           (-30.0 30.0)
  end
  begin
     id 14 
     name lowerneck
     direction 0.060228 0.994909 0.0807986   
     length 1.7607   
     axis 0 0 0   XYZ
    dof rx ry rz
    limits (-20.0 45.0)
           (-30.0 30.0)
           (-30.0 30.0)
  end
  begin
     id 15 
     name upperneck
     direction -0.0563647 0.959594 -0.275685   
     length 1.75612   
     axis 0 0 0   XYZ
    dof rx ry rz
    limits (-20.0 45.0)
           (-30.0 30.0)
           (-30.0 30.0)
  end
  begin
     id 16
     name head
     direction -0.0161544 0.99458 -0.102714  
     length 1.79288  
     axis 0 0 0   XYZ
    dof rx ry rz
    limits (-20.0 45.0)
           (-30.0 30.0)
           (-30.0 30.0)
  end
  begin
     id 17 
     name lclavicle
     direction 0.93913 0.332189 -0.087669  
     length 3.52087  
     axis 0 0 0   XYZ
    dof ry rz
    limits (-20.0 10.0)
           (0.0 20.0)
  end
  begin
     id 18 
     name lhumerus
     direction 1 -4.48974e-011 -2.70836e-027   
     length 5.35289   
     axis -180 -30 -90   XYZ
    dof rx ry rz
    limits (-60.0 90.0)
           (-90.0 90.0)
           (-90.0 90.0)
  end
  begin
     id 19
     name lradius
     direction 1 -4.48961e-011 -9.76021e-027   
     length 3.27727   
     axis -180 -30 -90   XYZ
    dof rx
    limits (-10.0 170.0)
  end
  begin
     id 20
     name lwrist
     direction 1 -4.49103e-011 -2.23668e-026   
     length 1.63864   
     axis 1.44924e-014 90 90   XYZ
    dof ry
    limits (-180.0 0.0)
 end
  begin
     id 21 
     name lhand
     direction 1 3.0697e-005 0.000161777   
     length 0.54443   
     axis 2.85318e-014 90 90   XYZ
    dof rx rz
    limits (-90.0 90.0)
           (-45.0 45.0)
  end
  begin
     id 22 
     name lfingers
     direction 1 -4.49027e-011 -8.9447e-026   
     length 0.438912   
     axis 5.70628e-014 90 90   XYZ
    dof rx
    limits (0.0 90.0)
  end
  begin
     id 23
     name lthumb
     direction 0.707058 2.6516e-005 0.707156   
     length 0.630274   
     axis -90 45 -3.53137e-014   XYZ
    dof rx rz
    limits (-45.0 45.0)
           (-45.0 45.0)
  end
  begin
     id 24 
     name rclavicle
     direction -0.95274 0.284984 -0.105215   
     length 3.43401  
     axis 0 0 0   XYZ 
    dof ry rz
    limits (-10.0 20.0)
           (-20.0 0.0)
  end
  begin
     id 25 
     name rhumerus
     direction -0.999999 -0.000575019 -0.00106829  
     length 5.52077   
     axis -180 30 90   XYZ
    dof rx ry rz
    limits (-90.0 60.0)
           (-90.0 90.0)
           (-90.0 90.0)
  end
  begin
     id 26 
     name rradius
     direction -1 -4.4879e-011 -6.35415e-027   
     length 3.32364   
     axis -180 30 90   XYZ
    dof rx
    limits (-10.0 170.0)
  end
  begin
     id 27 
     name rwrist
     direction -1 -4.49048e-011 -9.98542e-027   
     length 1.66182   
     axis 6.32482e-015 -90 -90   XYZ
    dof ry
    limits (-180.0 0.0)
  end
  begin
     id 28
     name rhand
     direction -1 -4.48978e-011 -1.99771e-026   
     length 0.732235   
     axis 1.27479e-014 -90 -90   XYZ
    dof rx rz
    limits (-90.0 90.0)
           (-45.0 45.0)
  end
  begin
     id 29
     name rfingers
     direction -1 -4.49144e-011 -3.99245e-026   
     length 0.590347   
     axis 2.5496e-014 -90 -90   XYZ
    dof rx
    limits (0.0 90.0)
  end
  begin
     id 30
     name rthumb
     direction -0.707107 -6.35121e-011 0.707107   
     length 0.847624   
     axis -90 -45 -2.82974e-014   XYZ
    dof rx rz
    limits (-45.0 45.0)
           (-45.0 45.0)
  end
:hierarchy
  begin
    root lhipjoint rhipjoint lowerback
    lhipjoint lfemur
    lfemur ltibia
    ltibia lfoot
    lfoot ltoes
    rhipjoint rfemur
    rfemur rtibia
    rtibia rfoot
    rfoot rtoes
    lowerback upperback
    upperback thorax
    thorax lowerneck lclavicle rclavicle
    lowerneck upperneck
    upperneck head
    lclavicle lhumerus
    lhumerus lradius
    lradius lwrist
    lwrist lhand lthumb
    lhand lfingers
    rclavicle rhumerus
    rhumerus rradius
    rradius rwrist
    rwrist rhand rthumb
    rhand rfingers
  end

#!OML:ASF G:\Work\Work\Patient Classification 1\Elijah\terrain1\Elijah.ASF
:FULLY-SPECIFIED
:DEGREES
2710
root 4.29552 21.954 3.06378 905.288 1.10438 178.631
lowerback 5.92653 0.066398 1.12809
upperback 2.39985 0.399029 2.70203
thorax -0.865666 0.284789 2.11748
lowerneck -8.36644 6.97063 16.0282
upperneck 25.6377 13.0789 -13.6351
head 11.6629 6.87295 -5.88565
rclavicle -1.39149e-015 1.43125e-014
rhumerus -35.2195 5.31392 -81.2745
rradius 59.7464
rwrist -14.8155
rhand -18.9514 23.4156
rfingers 7.12502
rthumb 7.35203 -6.43663
lclavicle -1.39149e-015 1.43125e-014
lhumerus -43.6376 -2.98375 88.0812
lradius 43.6802
lwrist 2.69141
lhand -12.215 27.6065
lfingers 7.12502
lthumb 13.8498 57.1254
rfemur -23.7147 -3.51948 25.4157
rtibia 37.3575
rfoot -19.1773 -9.6948
rtoes -7.62758
lfemur -36.5748 7.14678 -21.8823
ltibia 87.2321
lfoot -0.746824 -12.5442
ltoes -15.5131
2711
root 4.30223 21.9612 2.96305 905.316 1.52374 178.844
lowerback 6.13263 0.257675 1.37253
upperback 2.32722 0.675517 2.6944
thorax -1.06039 0.423836 1.95205
lowerneck -8.58117 6.94215 16.0305
upperneck 25.8021 13.0508 -13.6555
head 11.7667 6.85627 -5.89511
rclavicle 1.21259e-014 6.44062e-014
rhumerus -35.2696 5.38661 -81.2966
rradius 61.4168
rwrist -15.3436
rhand -19.5732 21.3874
rfingers 7.12502
rthumb 6.75187 -8.48494
lclavicle 1.21259e-014 6.44062e-014
lhumerus -43.8188 -3.29744 88.1385
lradius 42.5708
lwrist 3.16436
lhand -12.0792 28.331
lfingers 7.12502
lthumb 13.9807 57.8409
rfemur -23.1927 -3.10085 25.643
rtibia 37.0547
rfoot -19.3846 -9.70731
rtoes -7.76727
lfemur -37.8001 7.33314 -21.9879
ltibia 86.8384
lfoot -1.41699 -12.1223
ltoes -15.8926
2712
root 4.32003 21.9544 2.8673 905.31 1.89378 179.199
lowerback 6.1971 0.524872 1.95027
upperback 2.69123 1.075 2.49873
thorax -0.717845 0.637356 1.40083
lowerneck -10.1475 9.40822 15.7809
upperneck 26.837 12.0974 -12.6208
head 12.3538 5.15599 -5.81108
rclavicle 3.97569e-016 -5.64548e-014
rhumerus -34.5716 4.72482 -81.3674
rradius 62.5006
rwrist -15.8661
rhand -19.8096 21.8166
rfingers 7.12502
rthumb 6.52362 -8.06296
lclavicle 3.97569e-016 -5.64548e-014
lhumerus -43.1291 -4.02878 87.915
lradius 41.4468
lwrist 3.92125
lhand -12.1527 28.6444
lfingers 7.12502
lthumb 13.9099 58.1592
rfemur -22.6707 -2.46913 26.0729
rtibia 36.7484
rfoot -19.5112 -10.0189
rtoes -7.84893
lfemur -39.101 7.44535 -21.8062
ltibia 86.3786
lfoot -1.58569 -11.8744
ltoes -14.5636
2713
root 4.31137 21.9564 2.76539 905.308 1.87235 179.486
lowerback 6.13273 0.411354 2.42271
upperback 2.56554 0.95094 2.54385
thorax -0.803506 0.57642 1.19047
lowerneck -9.26857 7.04785 16.4187
upperneck 25.8823 13.0127 -13.8026
head 11.9767 6.81065 -6.00692
rclavicle -8.34896e-015 -3.02153e-014
rhumerus -34.8574 5.13466 -81.3744
rradius 63.5548
rwrist -16.3095
rhand -19.733 22.1038
rfingers 7.12502
rthumb 6.59759 -7.77338
lclavicle -8.34896e-015 -3.02153e-014
lhumerus -43.7835 -3.68438 87.8047
lradius 40.4757
lwrist 4.55054
lhand -12.677 27.4704
lfingers 7.12502
lthumb 13.4046 57.0191
rfemur -22.084 -2.82762 26.3497
rtibia 36.4719
rfoot -19.6934 -9.82956
rtoes -8.42365
lfemur -40.1546 7.00364 -21.8217
ltibia 85.6602
lfoot -2.08787 -11.3438
ltoes -14.0811
2714
root 4.31621 21.9608 2.66137 905.264 1.96085 179.862
lowerback 6.28616 0.433831 2.85481
upperback 2.43285 1.02231 2.62925
thorax -1.0199 0.61301 1.02846
lowerneck -8.67497 6.90429 16.4528
upperneck 25.7203 12.9749 -13.9841
head 11.7982 6.82433 -6.10497
rclavicle 8.74653e-015 6.36111e-014
rhumerus -35.1582 5.24639 -81.2616
rradius 64.6245
rwrist -16.5297
rhand -19.5921 22.1531
rfingers 7.12502
rthumb 6.73362 -7.71986
lclavicle 8.74653e-015 6.36111e-014
lhumerus -44.3981 -3.58713 87.7914
lradius 39.6972
lwrist 5.256
lhand -12.652 26.9538
lfingers 7.12502
lthumb 13.4286 56.501
rfemur -21.4622 -2.72164 26.748
rtibia 36.2105
rfoot -19.9781 -9.84949
rtoes -8.24596
lfemur -41.1323 6.89241 -21.6663
ltibia 84.8119
lfoot -2.70636 -11.0422
ltoes -15.1336
2715
root 4.31758 21.9666 2.56214 905.237 2.12574 180.001
lowerback 6.43626 0.413377 2.90821
upperback 2.45051 1.0201 2.77338
thorax -1.08708 0.616586 1.14543
lowerneck -8.62968 6.94871 16.2134
upperneck 25.6503 13.147 -14.1455
head 11.7886 6.87039 -6.09754
rclavicle 9.93923e-016 3.18055e-015
rhumerus -35 5.79093 -81.0736
rradius 65.4982
rwrist -16.8432
rhand -19.712 22.4619
rfingers 7.12502
rthumb 6.61785 -7.41469
lclavicle 9.93923e-016 3.18055e-015
lhumerus -44.6155 -3.05026 87.7864
lradius 38.8363
lwrist 5.83945
lhand -12.2863 27.3585
lfingers 7.12502
lthumb 13.7811 56.8821
rfemur -20.8952 -2.64217 26.867
rtibia 35.9626
rfoot -20.2759 -9.72
rtoes -7.41975
lfemur -42.0966 6.75685 -21.7926
ltibia 83.799
lfoot -3.22831 -10.7054
ltoes -15.4541
2716
root 4.31634 21.9665 2.46521 905.232 2.36654 180.184
lowerback 6.4553 0.45238 3.16546
upperback 2.47013 1.09291 2.77784
thorax -1.07287 0.656167 1.00075
lowerneck -8.55968 6.96296 16.1938
upperneck 25.5907 13.2187 -14.2635
head 11.7725 6.89552 -6.12907
rclavicle 1.53064e-014 3.02153e-014
rhumerus -34.9199 6.04577 -81.0885
rradius 66.329
rwrist -17.1298
rhand -19.9439 22.3988
rfingers 7.12502
rthumb 6.39398 -7.48467
lclavicle 1.53064e-014 3.02153e-014
lhumerus -44.773 -2.65142 87.5731
lradius 37.7479
lwrist 6.12308
lhand -11.9532 27.52
lfingers 7.12502
lthumb 14.1021 57.0215
rfemur -20.3881 -2.52949 27.0213
rtibia 35.7595
rfoot -20.551 -9.54325
rtoes -6.44173
lfemur -43.0812 6.62816 -21.8546
ltibia 82.6898
lfoot -3.71728 -10.2198
ltoes -14.577
2717
root 4.32091 21.9557 2.37573 905.269 2.46892 180.55
lowerback 6.50526 0.51283 3.76395
upperback 2.40932 1.21139 2.66944
thorax -1.14801 0.715406 0.544679
lowerneck -8.6073 6.93493 16.4471
upperneck 25.6692 13.1493 -14.2869
head 11.8209 6.88687 -6.19439
rclavicle 2.04748e-014 3.97569e-014
rhumerus -35.0022 5.75701 -81.2623
rradius 67.065
rwrist -17.0456
rhand -19.9553 22.2252
rfingers 7.12502
rthumb 6.38294 -7.65866
lclavicle 2.04748e-014 3.97569e-014
lhumerus -44.8427 -2.74318 87.2148
lradius 36.5094
lwrist 6.46107
lhand -11.9602 27.5602
lfingers 7.12502
lthumb 14.0953 57.0621
rfemur -19.9755 -2.2946 27.4269
rtibia 35.6053
rfoot -20.9455 -9.63138
rtoes -5.4537
lfemur -44.1357 6.43558 -21.6615
ltibia 81.5071
lfoot -4.34794 -9.74766
ltoes -15.0816
2718
root 4.32114 21.9456 2.28328 905.32 2.40919 180.716
lowerback 6.58251 0.444743 3.99858
upperback 2.36223 1.14703 2.71019
thorax -1.23701 0.684001 0.458669
lowerneck -8.78266 6.99478 16.4688
upperneck 25.774 13.2746 -14.4112
head 11.9344 6.93025 -6.22313
rclavicle -7.95139e-016 -3.97569e-015
rhumerus -34.9684 5.92153 -81.1803
rradius 67.6389
rwrist -16.9039
rhand -19.5517 22.5513
rfingers 7.12502
rthumb 6.77262 -7.32037
lclavicle -7.95139e-016 -3.97569e-015
lhumerus -44.9049 -2.55212 87.0763
lradius 35.392
lwrist 6.85204
lhand -12.284 27.7572
lfingers 7.12502
lthumb 13.7833 57.2806
rfemur -19.5582 -2.32578 27.5992
rtibia 35.4393
rfoot -21.3253 -9.69834
rtoes -5.16575
lfemur -44.998 5.95362 -21.6796
ltibia 80.1397
lfoot -5.02357 -9.39302
ltoes -16.2572
2719
root 4.31767 21.9419 2.18608 905.327 2.55232 180.871
lowerback 6.72296 0.445884 4.10563
upperback 2.34104 1.17946 2.85254
thorax -1.33748 0.703324 0.540829
lowerneck -8.72766 6.99858 16.3181
upperneck 25.7341 13.398 -14.6131
head 11.9357 6.96354 -6.25631
rclavicle 1.92821e-014 4.13472e-014
rhumerus -35.0568 6.30971 -80.8894
rradius 68.3375
rwrist -16.9401
rhand -19.0244 22.717
rfingers 7.12502
rthumb 7.28162 -7.13775
lclavicle 1.92821e-014 4.13472e-014
lhumerus -45.1304 -2.02715 87.0253
lradius 34.4894
lwrist 6.92952
lhand -12.3579 27.9045
lfingers 7.12502
lthumb 13.7121 57.4328
rfemur -19.0727 -2.32355 27.7162
rtibia 35.2534
rfoot -21.4239 -9.67847
rtoes -6.01194
lfemur -45.7161 5.62684 -21.6857
ltibia 78.6062
lfoot -4.74338 -9.22536
ltoes -13.4662
2720
root 4.31767 21.9369 2.0876 905.33 2.87714 181.269
lowerback 6.78315 0.552344 4.54795
upperback 2.40808 1.36986 2.93529
thorax -1.29008 0.807767 0.364596
lowerneck -8.99727 7.02849 16.2523
upperneck 25.8008 13.4447 -14.6955
head 12.0291 6.95735 -6.26277
rclavicle 6.16232e-015 1.43125e-014
rhumerus -35.035 6.36402 -80.7246
rradius 68.9778
rwrist -16.8651
rhand -18.8526 22.6095
rfingers 7.12502
rthumb 7.44743 -7.2394
lclavicle 6.16232e-015 1.43125e-014
lhumerus -45.1993 -1.52364 86.7529
lradius 33.682
lwrist 6.70307
lhand -12.2078 28.3259
lfingers 7.12502
lthumb 13.8568 57.8443
rfemur -18.5746 -2.10173 28.1048
rtibia 35.0768
rfoot -21.5992 -9.61577
rtoes -6.37492
lfemur -46.4291 5.61441 -21.3887
ltibia 76.9915
lfoot -3.50109 -9.06684
ltoes -7.12973
2721
root 4.31937 21.9295 1.98466 905.27 2.96474 181.393
lowerback 6.86824 0.533298 4.7376
upperback 2.40378 1.36759 2.94192
thorax -1.33771 0.807992 0.264341
lowerneck -8.99114 7.05125 16.2285
upperneck 25.8181 13.5376 -14.7957
head 12.0593 6.99347 -6.28283
rclavicle -1.90833e-014 7.95139e-015
rhumerus -35.0334 6.49388 -80.6906
rradius 69.4565
rwrist -16.6772
rhand -19.1148 22.5151
rfingers 7.12502
rthumb 7.1943 -7.34263
lclavicle -1.90833e-014 7.95139e-015
lhumerus -45.5003 -0.960865 86.4133
lradius 32.9191
lwrist 6.19984
lhand -12.1024 29.0313
lfingers 7.12502
lthumb 13.9584 58.5427
rfemur -18.0227 -2.07566 28.2234
rtibia 34.9437
rfoot -21.9746 -9.66888
rtoes -6.47781
lfemur -46.8889 5.3425 -21.3334
ltibia 75.2391
lfoot -3.21899 -9.07573
ltoes -5.32487
